<mxfile host="app.diagrams.net" modified="2023-03-21T10:42:06.646Z" agent="5.0 (Windows NT 10.0; Win64; x64) AppleWebKit/537.36 (KHTML, like Gecko) Chrome/111.0.0.0 Safari/537.36 Edg/111.0.1661.44" etag="IlJ9jrkp-4v9236SJHjp" version="21.0.8" type="github">
  <diagram name="Page-1" id="TvRAUpyqHwkx7jMxljNL">
    <mxGraphModel dx="1257" dy="706" grid="1" gridSize="10" guides="1" tooltips="1" connect="1" arrows="1" fold="1" page="1" pageScale="1" pageWidth="850" pageHeight="1100" math="0" shadow="0">
      <root>
        <mxCell id="0" />
        <mxCell id="1" parent="0" />
        <mxCell id="1zyMTB04VLs3QHSMI3tB-32" value="" style="edgeStyle=none;rounded=0;orthogonalLoop=1;jettySize=auto;html=1;endArrow=none;endFill=0;" parent="1" source="1zyMTB04VLs3QHSMI3tB-2" target="1zyMTB04VLs3QHSMI3tB-27" edge="1">
          <mxGeometry relative="1" as="geometry" />
        </mxCell>
        <mxCell id="1zyMTB04VLs3QHSMI3tB-2" value="ad_campaign" style="whiteSpace=wrap;html=1;align=center;" parent="1" vertex="1">
          <mxGeometry x="374" y="150" width="100" height="40" as="geometry" />
        </mxCell>
        <mxCell id="1zyMTB04VLs3QHSMI3tB-7" style="edgeStyle=none;rounded=0;orthogonalLoop=1;jettySize=auto;html=1;endArrow=none;endFill=0;" parent="1" source="1zyMTB04VLs3QHSMI3tB-3" target="1zyMTB04VLs3QHSMI3tB-2" edge="1">
          <mxGeometry relative="1" as="geometry" />
        </mxCell>
        <mxCell id="1zyMTB04VLs3QHSMI3tB-3" value="&lt;u&gt;AdCampaignID&lt;/u&gt;" style="ellipse;whiteSpace=wrap;html=1;align=center;" parent="1" vertex="1">
          <mxGeometry x="249" y="110" width="100" height="40" as="geometry" />
        </mxCell>
        <mxCell id="1zyMTB04VLs3QHSMI3tB-8" value="" style="edgeStyle=none;rounded=0;orthogonalLoop=1;jettySize=auto;html=1;endArrow=none;endFill=0;" parent="1" source="1zyMTB04VLs3QHSMI3tB-4" target="1zyMTB04VLs3QHSMI3tB-2" edge="1">
          <mxGeometry relative="1" as="geometry" />
        </mxCell>
        <mxCell id="1zyMTB04VLs3QHSMI3tB-4" value="&lt;u style=&quot;border-color: var(--border-color);&quot;&gt;AdCampaignName&lt;/u&gt;" style="ellipse;whiteSpace=wrap;html=1;align=center;" parent="1" vertex="1">
          <mxGeometry x="274" y="60" width="120" height="40" as="geometry" />
        </mxCell>
        <mxCell id="1zyMTB04VLs3QHSMI3tB-9" style="edgeStyle=none;rounded=0;orthogonalLoop=1;jettySize=auto;html=1;endArrow=none;endFill=0;" parent="1" source="1zyMTB04VLs3QHSMI3tB-5" target="1zyMTB04VLs3QHSMI3tB-2" edge="1">
          <mxGeometry relative="1" as="geometry" />
        </mxCell>
        <mxCell id="1zyMTB04VLs3QHSMI3tB-5" value="StartDate" style="ellipse;whiteSpace=wrap;html=1;align=center;" parent="1" vertex="1">
          <mxGeometry x="394" y="90" width="100" height="40" as="geometry" />
        </mxCell>
        <mxCell id="1zyMTB04VLs3QHSMI3tB-10" style="edgeStyle=none;rounded=0;orthogonalLoop=1;jettySize=auto;html=1;endArrow=none;endFill=0;" parent="1" source="1zyMTB04VLs3QHSMI3tB-6" target="1zyMTB04VLs3QHSMI3tB-2" edge="1">
          <mxGeometry relative="1" as="geometry" />
        </mxCell>
        <mxCell id="1zyMTB04VLs3QHSMI3tB-6" value="Duration" style="ellipse;whiteSpace=wrap;html=1;align=center;" parent="1" vertex="1">
          <mxGeometry x="494" y="70" width="100" height="40" as="geometry" />
        </mxCell>
        <mxCell id="1zyMTB04VLs3QHSMI3tB-28" style="edgeStyle=none;rounded=0;orthogonalLoop=1;jettySize=auto;html=1;endArrow=none;endFill=0;" parent="1" source="1zyMTB04VLs3QHSMI3tB-11" target="1zyMTB04VLs3QHSMI3tB-27" edge="1">
          <mxGeometry relative="1" as="geometry" />
        </mxCell>
        <mxCell id="1zyMTB04VLs3QHSMI3tB-31" value="1" style="edgeLabel;html=1;align=center;verticalAlign=middle;resizable=0;points=[];" parent="1zyMTB04VLs3QHSMI3tB-28" vertex="1" connectable="0">
          <mxGeometry x="-0.6825" relative="1" as="geometry">
            <mxPoint x="-12" y="-8" as="offset" />
          </mxGeometry>
        </mxCell>
        <mxCell id="1zyMTB04VLs3QHSMI3tB-11" value="ad_campaign_manager" style="whiteSpace=wrap;html=1;align=center;" parent="1" vertex="1">
          <mxGeometry x="169" y="290" width="150" height="40" as="geometry" />
        </mxCell>
        <mxCell id="1zyMTB04VLs3QHSMI3tB-15" style="edgeStyle=none;rounded=0;orthogonalLoop=1;jettySize=auto;html=1;endArrow=none;endFill=0;" parent="1" source="1zyMTB04VLs3QHSMI3tB-12" target="1zyMTB04VLs3QHSMI3tB-11" edge="1">
          <mxGeometry relative="1" as="geometry" />
        </mxCell>
        <mxCell id="1zyMTB04VLs3QHSMI3tB-12" value="&lt;u&gt;CampaignMgrID&lt;/u&gt;" style="ellipse;whiteSpace=wrap;html=1;align=center;" parent="1" vertex="1">
          <mxGeometry x="234" y="360" width="100" height="40" as="geometry" />
        </mxCell>
        <mxCell id="1zyMTB04VLs3QHSMI3tB-16" style="edgeStyle=none;rounded=0;orthogonalLoop=1;jettySize=auto;html=1;endArrow=none;endFill=0;" parent="1" source="1zyMTB04VLs3QHSMI3tB-13" target="1zyMTB04VLs3QHSMI3tB-11" edge="1">
          <mxGeometry relative="1" as="geometry" />
        </mxCell>
        <mxCell id="1zyMTB04VLs3QHSMI3tB-13" value=" CampaignMgrName." style="ellipse;whiteSpace=wrap;html=1;align=center;" parent="1" vertex="1">
          <mxGeometry x="94" y="360" width="130" height="40" as="geometry" />
        </mxCell>
        <mxCell id="1zyMTB04VLs3QHSMI3tB-48" style="edgeStyle=none;rounded=0;orthogonalLoop=1;jettySize=auto;html=1;endArrow=none;endFill=0;" parent="1" source="1zyMTB04VLs3QHSMI3tB-17" target="1zyMTB04VLs3QHSMI3tB-46" edge="1">
          <mxGeometry relative="1" as="geometry" />
        </mxCell>
        <mxCell id="1zyMTB04VLs3QHSMI3tB-49" value="1" style="edgeLabel;html=1;align=center;verticalAlign=middle;resizable=0;points=[];" parent="1zyMTB04VLs3QHSMI3tB-48" vertex="1" connectable="0">
          <mxGeometry x="-0.6856" y="4" relative="1" as="geometry">
            <mxPoint y="-13" as="offset" />
          </mxGeometry>
        </mxCell>
        <mxCell id="1zyMTB04VLs3QHSMI3tB-17" value="ad_campaign_modus" style="whiteSpace=wrap;html=1;align=center;" parent="1" vertex="1">
          <mxGeometry x="524" y="320" width="120" height="40" as="geometry" />
        </mxCell>
        <mxCell id="1zyMTB04VLs3QHSMI3tB-19" style="edgeStyle=none;rounded=0;orthogonalLoop=1;jettySize=auto;html=1;endArrow=none;endFill=0;" parent="1" source="1zyMTB04VLs3QHSMI3tB-18" target="1zyMTB04VLs3QHSMI3tB-17" edge="1">
          <mxGeometry relative="1" as="geometry" />
        </mxCell>
        <mxCell id="1zyMTB04VLs3QHSMI3tB-18" value="&lt;u&gt; ModusID&lt;/u&gt;" style="ellipse;whiteSpace=wrap;html=1;align=center;" parent="1" vertex="1">
          <mxGeometry x="534" y="400" width="100" height="40" as="geometry" />
        </mxCell>
        <mxCell id="1zyMTB04VLs3QHSMI3tB-43" style="edgeStyle=none;rounded=0;orthogonalLoop=1;jettySize=auto;html=1;endArrow=none;endFill=0;" parent="1" source="1zyMTB04VLs3QHSMI3tB-20" target="1zyMTB04VLs3QHSMI3tB-41" edge="1">
          <mxGeometry relative="1" as="geometry" />
        </mxCell>
        <mxCell id="1zyMTB04VLs3QHSMI3tB-44" value="1" style="edgeLabel;html=1;align=center;verticalAlign=middle;resizable=0;points=[];" parent="1zyMTB04VLs3QHSMI3tB-43" vertex="1" connectable="0">
          <mxGeometry x="-0.4503" y="-6" relative="1" as="geometry">
            <mxPoint x="-16" as="offset" />
          </mxGeometry>
        </mxCell>
        <mxCell id="1zyMTB04VLs3QHSMI3tB-20" value="ad_campaign_media" style="whiteSpace=wrap;html=1;align=center;" parent="1" vertex="1">
          <mxGeometry x="344" y="460" width="120" height="40" as="geometry" />
        </mxCell>
        <mxCell id="1zyMTB04VLs3QHSMI3tB-22" style="edgeStyle=none;rounded=0;orthogonalLoop=1;jettySize=auto;html=1;endArrow=none;endFill=0;" parent="1" source="1zyMTB04VLs3QHSMI3tB-21" target="1zyMTB04VLs3QHSMI3tB-20" edge="1">
          <mxGeometry relative="1" as="geometry" />
        </mxCell>
        <mxCell id="1zyMTB04VLs3QHSMI3tB-21" value="MediaID" style="ellipse;whiteSpace=wrap;html=1;align=center;" parent="1" vertex="1">
          <mxGeometry x="354" y="590" width="100" height="40" as="geometry" />
        </mxCell>
        <mxCell id="1zyMTB04VLs3QHSMI3tB-23" value="ad_campaign_range" style="whiteSpace=wrap;html=1;align=center;" parent="1" vertex="1">
          <mxGeometry x="631.5" y="140" width="125" height="40" as="geometry" />
        </mxCell>
        <mxCell id="1zyMTB04VLs3QHSMI3tB-25" style="edgeStyle=none;rounded=0;orthogonalLoop=1;jettySize=auto;html=1;endArrow=none;endFill=0;" parent="1" source="1zyMTB04VLs3QHSMI3tB-24" target="1zyMTB04VLs3QHSMI3tB-23" edge="1">
          <mxGeometry relative="1" as="geometry" />
        </mxCell>
        <mxCell id="1zyMTB04VLs3QHSMI3tB-24" value=" RangeID" style="ellipse;whiteSpace=wrap;html=1;align=center;" parent="1" vertex="1">
          <mxGeometry x="641.5" y="40" width="100" height="40" as="geometry" />
        </mxCell>
        <mxCell id="1zyMTB04VLs3QHSMI3tB-29" style="edgeStyle=none;rounded=0;orthogonalLoop=1;jettySize=auto;html=1;endArrow=none;endFill=0;" parent="1" source="1zyMTB04VLs3QHSMI3tB-27" target="1zyMTB04VLs3QHSMI3tB-2" edge="1">
          <mxGeometry relative="1" as="geometry" />
        </mxCell>
        <mxCell id="1zyMTB04VLs3QHSMI3tB-34" value="M" style="edgeLabel;html=1;align=center;verticalAlign=middle;resizable=0;points=[];" parent="1zyMTB04VLs3QHSMI3tB-29" vertex="1" connectable="0">
          <mxGeometry x="0.562" y="2" relative="1" as="geometry">
            <mxPoint x="15" as="offset" />
          </mxGeometry>
        </mxCell>
        <mxCell id="1zyMTB04VLs3QHSMI3tB-27" value="manages" style="shape=rhombus;perimeter=rhombusPerimeter;whiteSpace=wrap;html=1;align=center;" parent="1" vertex="1">
          <mxGeometry x="274" y="220" width="50" height="30" as="geometry" />
        </mxCell>
        <mxCell id="1zyMTB04VLs3QHSMI3tB-37" style="edgeStyle=none;rounded=0;orthogonalLoop=1;jettySize=auto;html=1;endArrow=none;endFill=0;" parent="1" source="1zyMTB04VLs3QHSMI3tB-36" target="1zyMTB04VLs3QHSMI3tB-2" edge="1">
          <mxGeometry relative="1" as="geometry" />
        </mxCell>
        <mxCell id="1zyMTB04VLs3QHSMI3tB-39" value="1" style="edgeLabel;html=1;align=center;verticalAlign=middle;resizable=0;points=[];" parent="1zyMTB04VLs3QHSMI3tB-37" vertex="1" connectable="0">
          <mxGeometry x="0.6708" y="1" relative="1" as="geometry">
            <mxPoint x="-8" as="offset" />
          </mxGeometry>
        </mxCell>
        <mxCell id="1zyMTB04VLs3QHSMI3tB-38" style="edgeStyle=none;rounded=0;orthogonalLoop=1;jettySize=auto;html=1;endArrow=none;endFill=0;" parent="1" source="1zyMTB04VLs3QHSMI3tB-36" target="1zyMTB04VLs3QHSMI3tB-17" edge="1">
          <mxGeometry relative="1" as="geometry" />
        </mxCell>
        <mxCell id="1zyMTB04VLs3QHSMI3tB-40" value="M" style="edgeLabel;html=1;align=center;verticalAlign=middle;resizable=0;points=[];" parent="1zyMTB04VLs3QHSMI3tB-38" vertex="1" connectable="0">
          <mxGeometry x="0.5618" relative="1" as="geometry">
            <mxPoint x="-11" y="3" as="offset" />
          </mxGeometry>
        </mxCell>
        <mxCell id="1zyMTB04VLs3QHSMI3tB-36" value="uses" style="shape=rhombus;perimeter=rhombusPerimeter;whiteSpace=wrap;html=1;align=center;" parent="1" vertex="1">
          <mxGeometry x="444" y="220" width="70" height="30" as="geometry" />
        </mxCell>
        <mxCell id="1zyMTB04VLs3QHSMI3tB-42" style="edgeStyle=none;rounded=0;orthogonalLoop=1;jettySize=auto;html=1;endArrow=none;endFill=0;" parent="1" source="1zyMTB04VLs3QHSMI3tB-41" target="1zyMTB04VLs3QHSMI3tB-17" edge="1">
          <mxGeometry relative="1" as="geometry" />
        </mxCell>
        <mxCell id="1zyMTB04VLs3QHSMI3tB-45" value="M" style="edgeLabel;html=1;align=center;verticalAlign=middle;resizable=0;points=[];" parent="1zyMTB04VLs3QHSMI3tB-42" vertex="1" connectable="0">
          <mxGeometry x="0.4689" y="3" relative="1" as="geometry">
            <mxPoint x="-13" y="1" as="offset" />
          </mxGeometry>
        </mxCell>
        <mxCell id="1zyMTB04VLs3QHSMI3tB-41" value="include" style="shape=rhombus;perimeter=rhombusPerimeter;whiteSpace=wrap;html=1;align=center;" parent="1" vertex="1">
          <mxGeometry x="374" y="340" width="60" height="30" as="geometry" />
        </mxCell>
        <mxCell id="1zyMTB04VLs3QHSMI3tB-47" style="edgeStyle=none;rounded=0;orthogonalLoop=1;jettySize=auto;html=1;endArrow=none;endFill=0;" parent="1" source="1zyMTB04VLs3QHSMI3tB-46" target="1zyMTB04VLs3QHSMI3tB-23" edge="1">
          <mxGeometry relative="1" as="geometry" />
        </mxCell>
        <mxCell id="1zyMTB04VLs3QHSMI3tB-50" value="1" style="edgeLabel;html=1;align=center;verticalAlign=middle;resizable=0;points=[];" parent="1zyMTB04VLs3QHSMI3tB-47" vertex="1" connectable="0">
          <mxGeometry x="0.6776" y="-4" relative="1" as="geometry">
            <mxPoint x="-5" y="11" as="offset" />
          </mxGeometry>
        </mxCell>
        <mxCell id="1zyMTB04VLs3QHSMI3tB-46" value="Relationship" style="shape=rhombus;perimeter=rhombusPerimeter;whiteSpace=wrap;html=1;align=center;" parent="1" vertex="1">
          <mxGeometry x="664" y="220" width="60" height="30" as="geometry" />
        </mxCell>
      </root>
    </mxGraphModel>
  </diagram>
</mxfile>
